<?xml version="1.0" encoding="iso-8859-1"?>
<!-- Uploaded to: SVG Repo, www.svgrepo.com, Generator: SVG Repo Mixer Tools -->
<svg height="800px" width="800px" version="1.1" id="Layer_1" xmlns="http://www.w3.org/2000/svg" xmlns:xlink="http://www.w3.org/1999/xlink" 
	 viewBox="0 0 512 512" xml:space="preserve">
<path style="fill:#D3EDD7;" d="M93.659,276.276c69.024,0,124.878,83.19,124.878,179.824c0,20.691,16.772,37.463,37.463,37.463
	s37.463-16.772,37.463-37.463c0-96.634,55.854-179.824,124.878-179.824l-57.86-10.823l-67.018,29.555l-12.488,48.702v-62.439
	h-49.951v62.439l-12.488-48.702l-40.794-26.224L93.659,276.276z"/>
<path style="fill:#AEDEBA;" d="M392.117,272.53c-69.024,0-124.878,83.19-124.878,179.824c0,17.89-12.543,32.842-29.313,36.563
	c5.36,2.958,11.519,4.647,18.074,4.647c20.691,0,37.463-16.774,37.463-37.463c0-96.634,55.854-179.824,124.878-179.824
	L392.117,272.53z"/>
<path style="fill:#95D5A7;" d="M512,183.866c0,20.746-18.973,33.901-33.944,48.549c-12.56,12.289-23.117,32.762-43.947,40.966
	c-16.896,6.655-39.646,0.057-60.751,4.137c-18.407,3.558-36.521,18.511-57.341,20.18c-19.074,1.531-39.506-10.185-60.016-10.185
	c-20.511,0-40.945,11.715-60.02,10.185c-20.822-1.671-38.937-16.623-57.344-20.182c-21.104-4.08-43.855,2.518-60.751-4.138
	c-20.828-8.204-31.386-28.677-43.945-40.968C18.971,217.764,0,204.61,0,183.866c0-19.837,19.016-37.006,32.774-56.811
	c11.33-16.309,17.939-40.552,36.704-54.583c16.423-12.279,41.591-12.566,62.48-21.636c19.153-8.316,36.198-26.84,58.182-31.357
	c20.606-4.235,43.519,5.792,65.859,5.792c22.339,0,45.251-10.026,65.857-5.792c21.985,4.517,39.031,23.041,58.184,31.357
	c20.888,9.07,46.056,9.357,62.479,21.636c18.767,14.031,25.375,38.274,36.705,54.584C492.984,146.86,512,164.029,512,183.866z"/>
<path style="fill:#80CB93;" d="M479.226,127.056c-11.33-16.31-17.939-40.553-36.705-54.583
	c-16.423-12.279-41.591-12.566-62.479-21.636c-19.154-8.317-36.201-26.84-58.186-31.357c-15.581-3.202-32.482,1.748-49.455,4.354
	c16.092,7.349,29.983,20.395,45.202,27.004c20.888,9.07,46.056,9.357,62.479,21.636c18.767,14.03,25.375,38.274,36.705,54.583
	c13.758,19.803,32.774,36.973,32.774,56.81c0,20.746-18.973,33.901-33.944,48.549c-12.56,12.289-23.117,32.762-43.947,40.966
	c-16.897,6.656-39.646,0.057-60.751,4.137c-10.977,2.122-21.849,8.294-33.253,13.287c13.121,3.338,26.02,7.884,38.35,6.895
	c20.821-1.671,38.934-16.624,57.341-20.182c21.104-4.08,43.855,2.518,60.751-4.137c20.83-8.204,31.387-28.676,43.947-40.966
	C493.027,217.767,512,204.612,512,183.866C512,164.029,492.984,146.86,479.226,127.056z"/>
</svg>